<svg xmlns="http://www.w3.org/2000/svg" xmlns:xlink="http://www.w3.org/1999/xlink" width="256" height="256" preserveAspectRatio="xMidYMid meet" viewBox="0 0 256 256" style="-ms-transform: rotate(360deg); -webkit-transform: rotate(360deg); transform: rotate(360deg);"><path d="M128 236.8a14.003 14.003 0 0 1-6.889-1.801l-84-47.479A14.022 14.022 0 0 1 30 175.332V80.668a14.022 14.022 0 0 1 7.111-12.188l84-47.479a14.073 14.073 0 0 1 13.778 0l84 47.479A14.022 14.022 0 0 1 226 80.668v94.664a14.021 14.021 0 0 1-7.11 12.188l-84.001 47.479a14.003 14.003 0 0 1-6.889 1.8zm0-205.61a2 2 0 0 0-.984.258l-84 47.479A2.004 2.004 0 0 0 42 80.667v94.665a2.004 2.004 0 0 0 1.016 1.742l84 47.478a2.01 2.01 0 0 0 1.968 0l84-47.479a2.003 2.003 0 0 0 1.016-1.74V80.667a2.004 2.004 0 0 0-1.016-1.742l-84-47.478a2 2 0 0 0-.984-.257z" fill="#626262"/><rect x="0" y="0" width="256" height="256" fill="rgba(0, 0, 0, 0)" /></svg>